# xmcd CD database file
#
# Track frame offsets:
#	182
#	16935
#	33570
#	50100
#	64937
#	81625
#	99862
#	115342
#	131257
#	145187
#	162640
#
# Disc length: 2413 seconds
#
# Revision: 1
# Processed by: cddbd v1.5.2PL0 Copyright (c) Steve Scherf et al.
# Submitted via: CDex 1.79
#
DISCID=9a096b0b
DTITLE=Philip Claypool - A Circus Leaving Town
DYEAR=1995
DGENRE=Country
TTITLE0=Swingin` On My Baby`s Chain
TTITLE1=The Wall
TTITLE2=The Strenght Of A Woman
TTITLE3=The Meaning Of Life
TTITLE4=Mile Out Of Memphis (featuring Carl Perkins)
TTITLE5=Circus Leaving Town
TTITLE6=Yellow Rose
TTITLE7=She Kicked My Dog
TTITLE8=Give Me Time
TTITLE9=Feel Like Makin` Love
TTITLE10=Southern Style
EXTD=YEAR: 1995
EXTT0=
EXTT1=
EXTT2=
EXTT3=
EXTT4=
EXTT5=
EXTT6=
EXTT7=
EXTT8=
EXTT9=
EXTT10=
PLAYORDER=
